<?xml version="1.0" encoding="utf-8"?>
<!-- Generator: Adobe Illustrator 21.1.0, SVG Export Plug-In . SVG Version: 6.00 Build 0)  -->
<svg version="1.1" id="_x31_" xmlns="http://www.w3.org/2000/svg" xmlns:xlink="http://www.w3.org/1999/xlink" x="0px" y="0px"
	 viewBox="1 1 126 220" style="enable-background:new 0 0 128 222;" width="200px" xml:space="preserve">
<style type="text/css">
	.st0{fill:#9D9D9D;}
	.st1{fill:#B1B1B1;}
	.st2{fill:#BABABA;}
</style>
  <defs>
    <!-- x1、y1はグラデーションの始点、x2、y2はグラデーションの終点 -->
    <linearGradient id="js-gradient" x1="0%" y1="0%" x2="100%" y2="100%" gradientUnits="userSpaceOnUse">
      <!-- 始点は赤、終点は青に設定 -->
      <stop id="js-gradient__stop-1" offset="0%" stop-color="red"/>
      <stop id="js-gradient__stop-2" offset="100%" stop-color="blue"/>
    </linearGradient>
  </defs>
<g>
	<g>
		<polygon class="st0" points="64,36.999 0,73.999 0,148 64,110.999 		"/>
		<polygon class="st1" points="64,36.999 64,110.999 128,148 128,73.999 		"/>
		<polygon class="st2" points="0,148 64,185 128,148 64,110.999 		"/>
	</g>
	<g>
		<polygon class="st1" points="64,185.001 64,222 0.002,222 0.002,148.001 		"/>
	</g>
	<g>
		<polygon class="st0" points="127.998,0 64,36.999 64,0 		"/>
		<polygon class="st2" points="127.998,0 127.998,73.999 64,36.999 		"/>
	</g>
	<g>
		<polygon class="st0" points="127.998,148.001 127.998,222 64,222 64,185.001 		"/>
	</g>
	<g>
		<polygon class="st1" points="64,0 64,36.999 0.002,0 		"/>
		<polygon class="st2" points="64,36.999 0.002,73.999 0.002,0 		"/>
	</g>
</g>
</svg>
