<?xml version="1.0" encoding="utf-8"?>
<!-- Generator: Adobe Illustrator 21.1.0, SVG Export Plug-In . SVG Version: 6.00 Build 0)  -->
<svg version="1.1" id="_x31_" xmlns="http://www.w3.org/2000/svg" xmlns:xlink="http://www.w3.org/1999/xlink" x="0px" y="0px"
	 viewBox="0 0 128 222" style="enable-background:new 0 0 128 222;" xml:space="preserve">
<style type="text/css">
	.st0{fill:#9D9D9D;}
	.st1{fill:#B1B1B1;}
	.st2{fill:#BABABA;}
</style>
<g>
	<g>
		<polygon class="st0" points="64,36.999 0,73.999 0,148 64,110.999 		"/>
		<polygon class="st1" points="64,36.999 64,110.999 128,148 128,73.999 		"/>
		<polygon class="st2" points="0,148 64,185 128,148 64,110.999 		"/>
	</g>
	<g>
		<polygon class="st1" points="64,185.001 64,222 0.002,222 0.002,148.001 		"/>
	</g>
	<g>
		<polygon class="st0" points="127.998,0 64,36.999 64,0 		"/>
		<polygon class="st2" points="127.998,0 127.998,73.999 64,36.999 		"/>
	</g>
	<g>
		<polygon class="st0" points="127.998,148.001 127.998,222 64,222 64,185.001 		"/>
	</g>
	<g>
		<polygon class="st1" points="64,0 64,36.999 0.002,0 		"/>
		<polygon class="st2" points="64,36.999 0.002,73.999 0.002,0 		"/>
	</g>
</g>
</svg>
